<svg xmlns="http://www.w3.org/2000/svg" width="85" height="63.086" viewBox="0 0 85 63.086">
  <g id="nuxt" transform="translate(-0.005 -0.987)">
    <path id="Tracé_274" data-name="Tracé 274" d="M48.531,18.252,45.617,23.3,35.649,6.034,5.05,59.026H25.768a5.047,5.047,0,0,0,5.047,5.047H5.05A5.047,5.047,0,0,1,.681,56.5l30.6-52.992a5.047,5.047,0,0,1,8.742,0l8.51,14.741Z" transform="translate(0)" fill="#00c58e"/>
    <path id="Tracé_275" data-name="Tracé 275" d="M165.863,120.325l-19.174-33.2-2.915-5.047-2.915,5.047-19.172,33.2a5.047,5.047,0,0,0,4.37,7.57h35.429a5.047,5.047,0,0,0,4.372-7.57h0Zm-39.805,2.523,17.717-30.681,17.712,30.681H126.058Z" transform="translate(-95.243 -63.822)" fill="#2f495e"/>
    <path id="Tracé_276" data-name="Tracé 276" d="M263.718,100.161a5.046,5.046,0,0,1-4.37,2.523H245.633a5.047,5.047,0,0,0,5.047-5.047h8.658L234.772,55.091l-3.937,6.82-2.915-5.047,2.481-4.3a5.047,5.047,0,0,1,8.742,0l24.574,42.547A5.047,5.047,0,0,1,263.718,100.161Z" transform="translate(-179.39 -38.612)" fill="#108775"/>
  </g>
</svg>
