<svg xmlns="http://www.w3.org/2000/svg" width="114.033" height="112.775" viewBox="0 0 114.033 112.775">
  <g id="Groupe_58" data-name="Groupe 58" transform="translate(-1208.637 -1129.146)">
    <path id="Tracé_24" data-name="Tracé 24" d="M104.6,79.257H6.322c-.1,2.3-.285,4.59-.293,6.885q-.035,24.283-.008,48.559c.008,12.654,1.117,13.778,13.462,13.794,4.351.008,8.711-.169,13.039.123,1.325.092,2.565,1.463,3.843,2.257-1.186.909-2.349,2.565-3.558,2.6a174.992,174.992,0,0,1-20.987-.131c-6.215-.562-10.459-4.544-10.528-10.959-.27-24.391-.362-48.79-.062-73.173.077-6.608,4.59-11.1,11.175-11.175,28.5-.323,57.007-.47,85.5.162,3.72.085,9.666,4.482,10.528,7.91,1.841,7.293,1.117,15.257,1.163,22.951,0,.9-1.771,1.81-2.719,2.711-.755-1.071-2.041-2.079-2.164-3.219a88.514,88.514,0,0,1-.108-9.288m-.639-5.391c.593-8.618-1.232-10.89-8.934-10.913q-39.856-.127-79.7.015c-7.293.031-9.45,2.9-8.557,10.9Z" transform="translate(1207.592 1071.392)" fill="#0f172a"/>
    <path id="Tracé_34" data-name="Tracé 34" d="M5.972,138.676c3.15-7.825,4.5-17.267,9.789-23.174C31.349,98.1,48.5,82.085,65.067,65.542c.655-.655,1.54-1.078,4.405-3.389,4.12,4.975,8.426,9.82,12.2,15.049.786,1.086.293,4.282-.77,5.36-16.5,16.6-32.678,33.571-50.107,49.152-5.63,5.045-14.633,6.331-22.1,9.334q-1.363-1.19-2.726-2.372m23.359-15C42.193,110.82,54.562,98.443,67.092,85.92c-2.141-1.987-4.867-4.5-7.139-6.6-12.854,12.923-25,25.138-37.669,37.884,2.418,2.226,5.2,4.775,7.047,6.469m37.83-53.9c-1.232,2.5-3.227,4.914-2.7,5.761,1.956,3.135,4.744,5.753,7.494,8.872,1.987-2.226,3.2-3.589,4.891-5.484-2.988-2.819-5.715-5.391-9.689-9.15M17.794,119.807c-1.594,5.175-2.78,9.019-4.267,13.848,5.152-1.794,8.911-3.1,13.632-4.744-3.3-3.2-5.846-5.684-9.365-9.1" transform="translate(1240.613 1100.873)" fill="#0f172a"/>
    <path id="Tracé_70" data-name="Tracé 70" d="M6.5,92.038c-.57-.685-1.733-1.5-1.61-2.041q2.946-13.609,6.292-27.125c.185-.724,1.81-1.409,2.8-1.479.555-.039,1.833,1.371,1.717,1.887-2.187,9.7-4.544,19.377-6.862,29.058-.778-.108-1.563-.2-2.341-.3" transform="translate(1233.333 1095.779)" fill="#0f172a"/>
    <path id="Tracé_85" data-name="Tracé 85" d="M9.056,70.256c1.448,3.011,2.7,5.615,3.951,8.225-.839.339-2.126,1.217-2.449.94C7.824,77.134,4.72,74.97,2.934,72.027c-.647-1.063,1.648-4.428,3.235-6.169,1.456-1.61,3.758-2.449,5.684-3.627.385,1.194,1.4,2.711,1.009,3.52-.824,1.656-2.411,2.934-3.8,4.505" transform="translate(1219.499 1101.395)" fill="#0f172a"/>
    <path id="Tracé_91" data-name="Tracé 91" d="M9.514,70.665c-.909-3.1-1.679-5.745-2.449-8.379,2.457,1.355,5.037,2.549,7.34,4.136,1.3.9,2.156,2.457,3.443,3.982-.932,1.294-1.525,2.719-2.588,3.481C12.718,75.7,9.953,77.2,7.273,78.837c.778-2.826,1.548-5.645,2.241-8.171" transform="translate(1247.938 1101.764)" fill="#0f172a"/>
    <path id="Tracé_158" data-name="Tracé 158" d="M99.148,69.4H1.953C1.06,61.4,3.217,58.529,10.51,58.5q39.844-.15,79.7-.015c7.7.023,9.527,2.3,8.934,10.913" transform="translate(1212.408 1075.862)" fill="#e11d48"/>
    <path id="Tracé_185" data-name="Tracé 185" d="M15.144,108.736c-1.848-1.694-4.629-4.251-7.055-6.477C20.758,89.52,32.911,77.305,45.765,64.382c2.272,2.095,5,4.613,7.139,6.593L15.144,108.736" transform="translate(1254.8 1115.811)" fill="#e11d48"/>
    <path id="Tracé_186" data-name="Tracé 186" d="M16.337,63.142c3.974,3.758,6.708,6.331,9.689,9.15-1.687,1.895-2.9,3.258-4.883,5.484-2.749-3.119-5.545-5.738-7.5-8.872-.524-.847,1.463-3.258,2.7-5.761" transform="translate(1291.437 1107.5)" fill="#f9fafa"/>
    <path id="Tracé_187" data-name="Tracé 187" d="M11.22,69.639c3.52,3.42,6.069,5.9,9.365,9.1-4.721,1.648-8.479,2.95-13.632,4.744,1.486-4.829,2.672-8.672,4.267-13.848" transform="translate(1247.187 1151.041)" fill="#f9fafa"/>
  </g>
</svg>
