<svg xmlns="http://www.w3.org/2000/svg" width="106.186" height="112.26" viewBox="0 0 106.186 112.26">
  <g id="Groupe_28" data-name="Groupe 28" transform="translate(-765.836 -1267.04)">
    <path id="Tracé_162" data-name="Tracé 162" d="M196.551,26.253H149.836V90.792h96.471c0-21.683-.007-43.194.075-64.7.007-.278,1.171-.548,2.9-1.291a50,50,0,0,1,.984,6.7c.068,19.536-.015,39.079.09,58.623.015,3.731-.315,6.352-5.128,6.329-32.247-.12-64.494-.068-96.749-.12a22.893,22.893,0,0,1-4.077-.9V88.465q0-35.307.008-70.628C144.415,7.213,148.642,3,159.439,2.94c9.175-.053,18.365-.06,27.547.06a44.207,44.207,0,0,1,6.419,1.014l.24,2.26c-2.095.6-4.182,1.674-6.3,1.719-8.942.2-17.884.038-26.834.1-10.249.06-12.171,2.545-10.016,13.612,15.226.683,30.791-.465,46.175.571-.038,1.321-.075,2.65-.12,3.979" transform="translate(621.441 1282.847)" fill="#0f172a"/>
    <path id="Tracé_163" data-name="Tracé 163" d="M184.223,21.765V.412C192.813,3.2,201,13.311,201.635,19.873c1.351,13.875-4.265,19.168-15.774,24.416,0,14.4.023,29-.007,43.584-.015,7.786-3.138,11.983-8.784,11.975-5.759-.008-8.98-4.144-9.017-11.87-.06-14.6-.015-29.184-.015-43.667-7.733-3.829-14.415-7.748-15.857-17.3-2.02-13.417,6.682-19.829,17.3-26.556.375,6.952.758,13.9,1.156,21.308ZM173.262,38.928c0,16.368-.053,31.872.045,47.383.023,3.281-1.344,7.989,3.867,8.056,1.126.015,3.251-5.376,3.334-8.319.36-13.65.225-27.314.105-40.971-.03-3.927.293-6.284,5.361-7.028,5.5-.811,9.956-4.693,10.2-10.894.248-6.187,1.809-13.327-6.119-16.217-1.089,5.571-.42,13.2-3.6,15.5-3.747,2.71-10.842.713-16.473.946-3.611.15-5.188-1.269-5.03-4.933.158-3.807.03-7.628.03-11.93-9.2,4.467-8.379,11.923-6.99,18.3,1.464,6.75,7.32,9.888,15.271,10.1" transform="translate(670.19 1266.628)" fill="#0f172a"/>
    <path id="Tracé_164" data-name="Tracé 164" d="M174.647,10.08c-3.476,4.122-21.21,4.542-26.436.631,3.754-3.364,20.8-3.769,26.436-.631" transform="translate(646.273 1315.628)" fill="#0f172a"/>
    <path id="Tracé_165" data-name="Tracé 165" d="M156.681,18.134c-.938,1.276-1.539,2.665-2.605,3.431-2.455,1.764-5.128,3.221-7.718,4.813.766-2.778,1.524-5.556,2.35-8.559-.668-2.072-1.577-4.858-2.493-7.651,2.77,1.667,5.594,3.251,8.251,5.06.893.608,1.4,1.8,2.215,2.906" transform="translate(633.283 1330.12)" fill="#0f172a"/>
    <path id="Tracé_166" data-name="Tracé 166" d="M148.184,11.411c4.107-.128,8.214-.285,12.321-.368,3.732-.083,7.471-.248,11.179-.023,1.074.068,2.185,1.261,3.026,2.162.18.188-.586,1.682-1.224,2.117-2.6,1.749-22.682.053-25.3-3.889" transform="translate(646.098 1334.929)" fill="#0f172a"/>
    <path id="Tracé_167" data-name="Tracé 167" d="M149.085,16.318c-1.1-3.6-1.93-6.344-2.763-9.092,2.605,1.554,5.263,3.018,7.778,4.7.924.616,1.509,1.734,2.815,3.289-1.862,2.042-3.476,4.28-5.533,5.954-1.4,1.119-3.416,1.449-5.165,2.132a42.688,42.688,0,0,1,1.449-5.188,5.247,5.247,0,0,1,1.419-1.794" transform="translate(633.296 1310.974)" fill="#0f172a"/>
    <path id="Tracé_168" data-name="Tracé 168" d="M168.706,30.162c-7.951-.21-13.807-3.349-15.271-10.1-1.389-6.382-2.207-13.837,6.99-18.3,0,4.3.128,8.124-.03,11.93-.158,3.664,1.419,5.083,5.03,4.933,5.631-.233,12.726,1.764,16.473-.946,3.183-2.3,2.515-9.933,3.6-15.5,7.928,2.891,6.367,10.031,6.119,16.217-.248,6.2-4.7,10.083-10.2,10.894-5.068.743-5.391,3.1-5.361,7.028.12,13.657.255,27.322-.105,40.971-.083,2.943-2.207,8.334-3.334,8.319-5.211-.068-3.844-4.775-3.867-8.056-.1-15.512-.045-31.016-.045-47.383" transform="translate(674.745 1275.394)" fill="#e11d48"/>
  </g>
</svg>
