<svg xmlns="http://www.w3.org/2000/svg" width="111.014" height="111.866" viewBox="0 0 111.014 111.866">
  <g id="Groupe_26" data-name="Groupe 26" transform="translate(-810.893 -1421.069)">
    <path id="Tracé_5" data-name="Tracé 5" d="M18.669,211.688c-5.236-2.578-11.384-5.606-18.669-9.2,9.11-9.03,16.93-17.928,26.046-25.207,3.147-2.505,9.572-.615,14.372-1.441,3.153-.549,7.034-1.534,8.971-3.742a77.472,77.472,0,0,1,43.657-25.6c5.619-1.177,11.172-2.664,17.069-4.085.4,1.4,1.038,2.4.873,3.233-4.363,22.212-10.128,43.789-29.252,58.577-3.484,2.69-4.251,5.983-3.636,9.8,1.527,9.486-1.8,16.533-9.222,22.635-6,4.932-10.974,11.119-17.254,17.624-3.821-7.695-6.935-13.968-10.24-20.625-2.942,2.512-4.945,4.224-7.728,6.6-6.062-6.161-12.329-11.886-17.6-18.4-1.124-1.382,1.362-5.679,2.611-10.167m36.207,11.364c9.156-8.442,18.616-16.811,27.639-25.623a81.787,81.787,0,0,0,11.417-13.836c8.078-12.455,7.887-12.573-2.638-23.1-7.721-7.728-7.774-7.82-17.485-2.466-3.609,1.983-7.411,4.013-10.28,6.882C52.29,176.136,41.389,187.7,30.568,198.917c8.363,8.3,16.1,15.991,24.307,24.136m18.008-10.531C66.265,218.537,60,224.136,53.837,229.854c-6.981,6.485-7.007,7.807-.02,16.566,4.442-4.786,8.323-10.048,13.248-14.008,6.631-5.328,7.278-11.747,5.817-19.892M42.011,180.288c-6.049.443-11.41-.78-14.153,1.355C20.652,187.262,14.6,194.335,8.085,200.82l.278,2.036c3.914.516,9.513,2.929,11.443,1.223,7.582-6.736,14.015-14.775,22.205-23.792m7.873,47.24c-8.158-8.039-15.879-15.654-23.706-23.375-1,1.15-2.479,2.849-3.629,4.171,7.7,7.847,15.2,15.482,22.906,23.323,1.514-1.4,3.14-2.915,4.429-4.119m52.033-62.98c1.368-5.679,2.578-10.7,4-16.633-6.022,1.54-10.855,2.763-16.5,4.2,4.5,4.475,8.224,8.177,12.5,12.428M37.43,232.611c-5.646-6.353-9.863-11.093-14.266-16.038-1.223,1.329-2.155,2.34-3.477,3.775,4.033,3.867,7.741,7.735,11.82,11.172,1.15.972,3.371.674,5.923,1.091" transform="translate(810.893 1278.654)" fill="#0f172a"/>
    <path id="Tracé_120" data-name="Tracé 120" d="M28.926,212.954c-8.2-8.138-15.945-15.826-24.3-24.129,10.815-11.218,21.716-22.787,32.961-34.012,2.862-2.862,6.664-4.9,10.273-6.882,9.711-5.348,9.764-5.262,17.485,2.466,10.531,10.524,10.716,10.65,2.638,23.1a81.753,81.753,0,0,1-11.41,13.836c-9.03,8.812-18.49,17.188-27.646,25.623m10.736-23.369A11.845,11.845,0,0,0,52.05,177.772,12.226,12.226,0,0,0,40.2,165.906,11.8,11.8,0,0,0,28.3,177.547a11.477,11.477,0,0,0,11.364,12.038" transform="translate(836.843 1288.746)" fill="#f9fafa"/>
    <path id="Tracé_121" data-name="Tracé 121" d="M31.641,153.02c1.461,8.144.813,14.563-5.811,19.892-4.932,3.96-8.812,9.222-13.254,14.008-6.981-8.759-6.961-10.075.02-16.566,6.161-5.718,12.428-11.318,19.045-17.333" transform="translate(852.134 1338.156)" fill="#e11d48"/>
    <path id="Tracé_122" data-name="Tracé 122" d="M35.149,148.144c-8.191,9.017-14.616,17.056-22.205,23.792-1.93,1.706-7.53-.707-11.443-1.223-.093-.674-.185-1.355-.278-2.036C7.735,162.192,13.8,155.118,21,149.5c2.743-2.135,8.1-.912,14.153-1.355" transform="translate(817.755 1310.798)" fill="#e11d48"/>
    <path id="Tracé_123" data-name="Tracé 123" d="M30.752,175.129c-1.289,1.2-2.915,2.71-4.429,4.119-7.7-7.84-15.2-15.482-22.913-23.323,1.157-1.322,2.631-3.021,3.636-4.171,7.827,7.721,15.548,15.33,23.706,23.375" transform="translate(830.026 1331.052)" fill="#f9fafa"/>
    <path id="Tracé_124" data-name="Tracé 124" d="M26.027,159.88c-4.277-4.257-8-7.953-12.5-12.428,5.646-1.441,10.478-2.664,16.5-4.2-1.421,5.937-2.631,10.954-4,16.633" transform="translate(886.783 1283.322)" fill="#f9fafa"/>
    <path id="Tracé_125" data-name="Tracé 125" d="M20.721,169.671c-2.552-.416-4.773-.119-5.923-1.091-4.079-3.438-7.787-7.3-11.82-11.172,1.322-1.435,2.254-2.446,3.477-3.775,4.4,4.945,8.62,9.685,14.266,16.038" transform="translate(827.602 1341.595)" fill="#f9fafa"/>
    <path id="Tracé_216" data-name="Tracé 216" d="M19.574,171.175A11.481,11.481,0,0,1,8.21,159.137a11.785,11.785,0,0,1,11.9-11.642,12.222,12.222,0,0,1,11.853,11.866,11.853,11.853,0,0,1-12.388,11.813M20.7,152.13c-5.229-.053-7.88,2.7-8.144,7.12-.284,4.727,2.948,7.384,7.331,7.5,4.138.112,7.133-2.32,7.378-6.783.258-4.733-2.433-7.186-6.564-7.84" transform="translate(856.93 1307.156)" fill="#0f172a"/>
    <path id="Tracé_260" data-name="Tracé 260" d="M17.023,148.2c4.132.654,6.822,3.107,6.564,7.84-.245,4.462-3.239,6.895-7.378,6.783-4.383-.119-7.616-2.776-7.331-7.5.264-4.422,2.915-7.173,8.144-7.12" transform="translate(860.611 1311.089)" fill="#e11d48"/>
  </g>
</svg>
