<svg xmlns="http://www.w3.org/2000/svg" width="115.25" height="101.892" viewBox="0 0 115.25 101.892">
  <g id="Groupe_25" data-name="Groupe 25" transform="translate(-2175.898 -2177.893)">
    <path id="Tracé_8" data-name="Tracé 8" d="M201.557,246.35c-13.573-.008-27.146.057-40.719-.024-11.924-.066-16.391-4.451-16.415-16.1q-.074-34.95.016-69.908c.025-10.7,4.7-15.648,15.362-15.7q42.263-.2,84.51.008c10.641.057,15.256,4.982,15.28,15.786q.1,35.33,0,70.675c-.025,10.209-4.737,15.084-15.011,15.215-14.341.2-28.682.057-43.023.041m-51.54-78.769c0,22.271-.057,43.758.041,65.244.025,6.338,4.083,8.077,9.743,8.061q42.251-.123,84.477-.008c6.7.016,9.857-2.85,9.776-9.694-.155-13.826-.033-27.645-.033-41.479.008-7.3,0-14.61,0-22.124Zm103.171-5.962c1.094-8.681-.858-11.36-8.861-11.393q-42.251-.147-84.51-.008c-8.191.016-10.021,2.442-9.049,11.4Z" transform="translate(2031.506 2033.368)" fill="#0f172a"/>
    <path id="Tracé_131" data-name="Tracé 131" d="M145.1,147.349h104c0,7.513.008,14.814,0,22.124,0,13.826-.114,27.653.041,41.471.082,6.852-3.079,9.718-9.776,9.7q-42.239-.123-84.477.008c-5.66.016-9.719-1.723-9.743-8.069-.1-21.487-.041-42.965-.041-65.236m51.443,37.624v-.016H215.69c22.181,0,21.928,0,22.1-21.944.041-6.346-2.352-7.848-8.012-7.783-16.84.188-33.7.049-50.544.041-23.847-.008-23.741-.008-22.793,23.545.18,4.671,1.83,6.3,6.387,6.223,11.237-.188,22.475-.065,33.712-.065M174.415,212.5v-.033c3.83,0,7.66-.212,11.474.049,5.1.343,7.881-1.323,7.2-6.893a18.765,18.765,0,0,1,0-4.59c.711-5.831-1.3-8.518-7.644-8.012a108.2,108.2,0,0,1-19.11-.016c-7.636-.768-10.535,1.568-9.98,9.6.686,9.849.147,9.89,10.4,9.9Zm63.913-1.7c-.351-1.2-.694-2.4-1.037-3.61-12.479,0-24.958-.033-37.428.1-.58.008-1.788,1.854-1.6,2.14.735,1.127,1.895,2.793,2.907,2.8,11.442.082,22.875-.082,34.309-.286.964-.016,1.9-.751,2.85-1.143m-40.164-16.48c6.109,6.06,35.076,5.472,40.205,0Z" transform="translate(2036.434 2053.609)" fill="#f9fafa"/>
    <path id="Tracé_132" data-name="Tracé 132" d="M247.8,156.684H145.381c-.972-8.959.857-11.384,9.049-11.4q42.263-.147,84.51.008c8,.033,9.956,2.711,8.861,11.393" transform="translate(2036.893 2038.304)" fill="#f9fafa"/>
    <path id="Tracé_227" data-name="Tracé 227" d="M186.827,178.059c-11.237,0-22.475-.122-33.713.066-4.549.074-6.2-1.552-6.386-6.231-.939-23.545-1.053-23.545,22.793-23.537,16.856.008,33.7.147,50.552-.041,5.66-.065,8.052,1.429,8,7.783-.163,21.944.09,21.944-22.091,21.936H186.827ZM153.033,171.8h68.772V154.3H153.033Z" transform="translate(2046.138 2060.523)" fill="#0f172a"/>
    <path id="Tracé_228" data-name="Tracé 228" d="M164.574,172.546h-7.66c-10.249-.008-9.71-.049-10.4-9.9-.547-8.02,2.344-10.355,9.98-9.588a107.44,107.44,0,0,0,19.11.008c6.346-.5,8.355,2.189,7.644,8.02a19.53,19.53,0,0,0,0,4.582c.678,5.578-2.1,7.236-7.2,6.893-3.814-.253-7.644-.049-11.474-.049Zm-11.621-6.035h24.378c-.131-2.711-.253-4.99-.376-7.17h-24Z" transform="translate(2046.275 2093.551)" fill="#0f172a"/>
    <path id="Tracé_229" data-name="Tracé 229" d="M191.675,158.281c-.947.4-1.886,1.135-2.85,1.151-11.434.2-22.867.368-34.309.286-1.013-.008-2.172-1.674-2.907-2.809-.188-.278,1.021-2.131,1.6-2.14,12.471-.122,24.95-.09,37.428-.09.343,1.2.686,2.409,1.037,3.6" transform="translate(2083.087 2106.117)" fill="#0f172a"/>
    <path id="Tracé_230" data-name="Tracé 230" d="M151.58,153.1h40.205c-5.129,5.472-34.1,6.06-40.205,0" transform="translate(2083.018 2094.825)" fill="#0f172a"/>
    <rect id="Rectangle_17" data-name="Rectangle 17" width="68.773" height="17.501" transform="translate(2199.171 2214.825)" fill="#e11d48"/>
    <path id="Tracé_262" data-name="Tracé 262" d="M147.249,160.878v-7.17h24c.122,2.181.245,4.459.376,7.17Z" transform="translate(2051.979 2099.183)" fill="#e11d48"/>
  </g>
</svg>
