<svg xmlns="http://www.w3.org/2000/svg" width="121.175" height="109.806" viewBox="0 0 121.175 109.806">
  <g id="Groupe_11" data-name="Groupe 11" transform="translate(-469.888 -1141.972)">
    <g id="Groupe_8" data-name="Groupe 8" transform="translate(291 1303)">
      <path id="Tracé_4" data-name="Tracé 4" d="M73.392,76.787c-11.458,0-22.58.032-33.7,0-8.885-.025-11.274-2.453-11.274-11.414q-.019-27.2,0-54.4C28.423,2.8,30.831.43,39.157.423Q83.989.395,128.828.43c8.09,0,10.658,2.606,10.677,10.766q.057,27.216.013,54.413c-.013,8.427-2.688,11.147-11.058,11.179-11.141.057-22.275.013-33.314.013-2.637,9.628-2.631,9.628,16.015,16.117-2.491,1.169-3.908,2.4-5.332,2.415q-21.82.21-43.641-.025c-1.36-.006-2.707-1.424-4.061-2.193,1.246-.629,2.459-1.729,3.743-1.824,9.45-.674,12.482-4.118,11.522-14.5M135.081,58.8c0-16.873.153-33.377-.254-49.882-.038-1.525-3.553-4.163-5.548-4.258-9.749-.439-19.529-.2-29.3-.2q-30.2,0-60.406,0c-3.3,0-6.832-.076-6.857,4.538-.1,16.492-.038,32.99-.038,49.8Zm-.693,4.862a5.785,5.785,0,0,0-1.633-.5c-32.081-.044-64.168-.1-96.249.051-1.385,0-4.061,2.173-3.908,2.8a14.737,14.737,0,0,0,3.292,6.12c.642.731,2.656.273,4.048.273q43.946.01,87.886,0c7.226-.013,7.925-.972,6.565-8.738M91.574,91.194c-.928-4.843-1.786-9.31-2.663-13.873H78.692c-1.023,5.014-1.926,9.437-2.822,13.873Z" transform="translate(150.486 -161.436)" fill="#0f172a"/>
      <path id="Tracé_117" data-name="Tracé 117" d="M131.493,55.444H29.086c0-16.816-.051-33.314.038-49.805.025-4.614,3.553-4.544,6.864-4.544q30.2.01,60.406.006c9.768,0,19.542-.241,29.3.2,1.989.089,5.51,2.726,5.548,4.258.407,16.5.254,33.009.254,49.882M72.918,43.84c.267.407.934,1.43,1.6,2.453.915-.839,2.428-1.544,2.65-2.536C78.949,35.807,80.582,27.818,82,19.8c.2-1.131-1.036-2.5-1.6-3.769-.833.953-2.193,1.8-2.428,2.879C76.229,26.871,74.7,34.879,72.918,43.84M93.305,31.612c-2.288,2.142-4.3,3.794-5.987,5.732-.553.642-.254,2.021-.35,3.063,1.049-.038,2.434.343,3.076-.178a48.368,48.368,0,0,0,6.9-6.584,4.264,4.264,0,0,0,.146-4.067,56.1,56.1,0,0,0-6.972-7.359c-.629-.572-2.04-.292-3.089-.4.038,1.049-.337,2.415.184,3.089,1.69,2.2,3.711,4.144,6.088,6.7m-31.827.407c2.65-2.834,4.468-4.423,5.809-6.355.705-1.01.572-2.612.82-3.947-1.182.3-2.676.235-3.5.947a33.324,33.324,0,0,0-6.076,6.45,5.294,5.294,0,0,0,.1,4.862,34.692,34.692,0,0,0,6.393,6.139c.693.566,2.021.343,3.063.483-.114-1.169.222-2.777-.419-3.438a66.065,66.065,0,0,0-6.19-5.141" transform="translate(154.074 -158.071)" fill="#fff"/>
      <path id="Tracé_118" data-name="Tracé 118" d="M130.863,10.82c1.354,7.766.661,8.732-6.565,8.738q-43.946.029-87.886,0c-1.392,0-3.406.458-4.048-.267a14.75,14.75,0,0,1-3.3-6.12c-.146-.623,2.523-2.8,3.915-2.8,32.081-.146,64.162-.089,96.249-.051a6,6,0,0,1,1.633.5" transform="translate(154.012 -108.598)" fill="#e11d48"/>
      <path id="Tracé_119" data-name="Tracé 119" d="M51.575,26.383h-15.7c.9-4.436,1.8-8.859,2.822-13.873H48.912c.877,4.563,1.735,9.031,2.663,13.873" transform="translate(190.485 -96.625)" fill="#fff"/>
      <path id="Tracé_213" data-name="Tracé 213" d="M35.972,31.2c1.786-8.961,3.311-16.962,5.052-24.919.235-1.087,1.589-1.932,2.428-2.885.566,1.265,1.792,2.644,1.6,3.769-1.411,8.014-3.051,16-4.836,23.953-.222.991-1.729,1.7-2.644,2.536-.667-1.023-1.328-2.046-1.6-2.453" transform="translate(191.026 -145.432)" fill="#0f172a"/>
      <path id="Tracé_214" data-name="Tracé 214" d="M44.545,14.1c-2.377-2.561-4.391-4.5-6.088-6.7-.521-.68-.146-2.04-.184-3.095,1.049.114,2.459-.172,3.089.4a56.073,56.073,0,0,1,6.972,7.359,4.264,4.264,0,0,1-.146,4.067,48.368,48.368,0,0,1-6.9,6.584c-.642.521-2.027.14-3.076.178.1-1.042-.2-2.421.356-3.063,1.678-1.932,3.692-3.591,5.98-5.732" transform="translate(202.835 -140.564)" fill="#0f172a"/>
      <path id="Tracé_215" data-name="Tracé 215" d="M37.109,14.592a66.066,66.066,0,0,1,6.19,5.141c.642.661.305,2.269.419,3.438-1.042-.14-2.37.083-3.063-.483a34.692,34.692,0,0,1-6.393-6.139,5.294,5.294,0,0,1-.1-4.862,33.324,33.324,0,0,1,6.076-6.45c.82-.712,2.313-.648,3.5-.947-.248,1.335-.114,2.936-.82,3.947-1.341,1.932-3.159,3.521-5.809,6.355" transform="translate(178.443 -140.644)" fill="#0f172a"/>
    </g>
    <g id="Groupe_10" data-name="Groupe 10" transform="translate(-104 56.826)">
      <path id="Tracé_11" data-name="Tracé 11" d="M60.776,36.6c0-9.871-.033-19.738,0-29.609C60.8,1.725,62.42.058,67.6.034q16.35-.077,32.7,0c5.194.023,6.852,1.362,6.885,6.406.136,20.475.113,40.95.085,61.421,0,4.156-2.343,6.194-6.42,6.208-11.2.023-22.391.08-33.587-.042-4.8-.052-6.448-1.935-6.467-6.936-.047-10.167-.014-20.33-.019-30.492M64.1,54.782h39.814V12.958H64.1Zm-.371,3.912c0,3.165-.394,6.147.174,8.941a5.075,5.075,0,0,0,3.682,3.156c10.89.254,21.795.24,32.69.023,1.306-.028,3.5-1.573,3.682-2.677.507-3.076.174-6.283.174-9.444Zm.535-49.075h39.325c1.23-5.973.714-6.659-5-6.673q-14.751-.042-29.506,0c-5.175.014-5.87.967-4.818,6.678" transform="translate(587.773 1120.844)" fill="#0f172a"/>
      <path id="Tracé_137" data-name="Tracé 137" d="M61.472,2.76h39.814V44.584H61.472Zm22.9,10.792c-.437-.085-.878-.174-1.315-.258a9.379,9.379,0,0,0-1.507,2.372c-1.2,4.5-2.348,9.026-3.306,13.586-.183.864.578,1.925.906,2.893.7-.784,1.785-1.46,2.048-2.367,1.249-4.339,2.329-8.73,3.339-13.135a11.162,11.162,0,0,0-.164-3.09m5.649,10.017a11.689,11.689,0,0,0-1.935,2.541c-.183.394.817,1.334,1.277,2.029,1.625-1.414,3.508-2.639,4.734-4.344.427-.592-.46-2.714-1.324-3.508-1.2-1.108-2.944-1.63-4.457-2.4.484,1.615.967,3.222,1.7,5.682M72.8,22.841c.493-1.648,1.014-3.362,1.531-5.081-1.615.972-3.283,1.874-4.818,2.959a9.836,9.836,0,0,0-1.662,2.071,7.126,7.126,0,0,0,1.324,1.874c1.662,1.132,3.428,2.113,5.156,3.156C73.8,26.1,73.278,24.386,72.8,22.841" transform="translate(590.398 1131.042)" fill="#fff"/>
      <path id="Tracé_138" data-name="Tracé 138" d="M61.5,12.5h40.4c0,3.16.333,6.373-.174,9.449-.188,1.1-2.376,2.644-3.682,2.672-10.9.216-21.8.23-32.694-.023a5.077,5.077,0,0,1-3.677-3.156C61.1,18.645,61.5,15.663,61.5,12.5M82.65,20.97c1.681-1.01,3-1.8,4.306-2.583-1.338-.512-2.681-1.428-4.02-1.423-1.517,0-3.034.836-4.551,1.3,1.306.831,2.611,1.658,4.264,2.7" transform="translate(590.005 1167.035)" fill="#e11d48"/>
      <path id="Tracé_139" data-name="Tracé 139" d="M61.838,7.318C60.786,1.608,61.481.655,66.656.64q14.758-.035,29.506,0c5.715.014,6.232.7,5,6.673Z" transform="translate(590.201 1123.145)" fill="#e11d48"/>
      <path id="Tracé_232" data-name="Tracé 232" d="M71.195,5.261a11.162,11.162,0,0,1,.164,3.09c-1.01,4.4-2.09,8.8-3.339,13.135-.263.906-1.343,1.583-2.048,2.367-.329-.967-1.09-2.029-.906-2.893.958-4.56,2.109-9.082,3.306-13.586A9.379,9.379,0,0,1,69.88,5c.437.085.878.174,1.315.258" transform="translate(603.578 1139.333)" fill="#0f172a"/>
      <path id="Tracé_233" data-name="Tracé 233" d="M69.092,11.66l-1.7-5.678c1.512.77,3.259,1.287,4.457,2.4.864.8,1.747,2.916,1.324,3.508-1.226,1.7-3.109,2.93-4.734,4.344-.46-.69-1.461-1.634-1.277-2.029a11.689,11.689,0,0,1,1.935-2.541" transform="translate(611.33 1142.951)" fill="#0f172a"/>
      <path id="Tracé_234" data-name="Tracé 234" d="M67.781,11.035c.474,1.545,1,3.259,1.531,4.978-1.728-1.043-3.494-2.024-5.156-3.156a7.126,7.126,0,0,1-1.324-1.874,9.836,9.836,0,0,1,1.662-2.071c1.536-1.085,3.2-1.986,4.818-2.959-.517,1.719-1.038,3.433-1.531,5.081" transform="translate(595.421 1142.848)" fill="#0f172a"/>
      <path id="Tracé_235" data-name="Tracé 235" d="M69.254,17.455c-1.653-1.047-2.959-1.874-4.264-2.7,1.517-.465,3.034-1.3,4.551-1.3,1.338,0,2.681.911,4.02,1.423-1.31.784-2.625,1.573-4.306,2.583" transform="translate(603.401 1170.55)" fill="#0f172a"/>
    </g>
  </g>
</svg>
