<svg xmlns="http://www.w3.org/2000/svg" width="134.981" height="109.097" viewBox="0 0 134.981 109.097">
  <g id="Groupe_12" data-name="Groupe 12" transform="translate(-842.674 -1143.032)">
    <path id="Tracé_37" data-name="Tracé 37" d="M132.479,50.7c-2.335,1.511-5.125,2.628-6.929,4.632-3.206,3.561-9.434,3.36-12.841-.146a10.8,10.8,0,0,0-7.33-2.906c-4.648.154-9.195-4.439-8.933-9.218.123-2.328-.732-5.534-2.358-6.968-4.648-4.131-4.725-9.519-.023-13.372a8.322,8.322,0,0,0,2.782-6.212c-.663-6.451,3.068-10.051,9.773-9.334a7.7,7.7,0,0,0,5.742-2.567c4.262-5.11,9.226-5.079,13.681.046a8.239,8.239,0,0,0,5.942,2.451c6.806-.447,10.166,2.967,9.55,9.673a7.822,7.822,0,0,0,2.536,5.811c5.195,4.17,5.11,9.141.062,13.611-1.58,1.4-2.081,4.763-1.989,7.183.162,4.193-4.555,9.526-9.665,7.314m-27.832-4.6c5.858-2.559,10.444,1.965,13.241,5.3,6.721-2.621,12.27-4.763,16.247-6.3,2.605-5.9,4.994-11.307,6.659-15.091q-3.422-8.717-6.212-15.8c-4.971-1.965-10.536-4.162-15.207-6-5.3,2.035-10.706,4.093-15.315,5.858-2.073,5.125-4.278,10.6-6.3,15.6,1.958,4.671,4.162,9.958,6.883,16.448" transform="translate(791.005 1142.236)" fill="#0f172a"/>
    <path id="Tracé_43" data-name="Tracé 43" d="M97.722,29c3.083-12.7,15.8-23.315,27.038-20.371-5.364,3.345-9.3,5.958-13.4,8.3-4.6,2.628-8.548,5.472-7.122,11.592.694.362,1.094.732,1.5.755,11.554.678,11.083-2,11.106,11.638.039,19.608.069,19.608-19.554,19.562a29.115,29.115,0,0,0-4.339.008c-5.811.894-7.869-1.657-7.361-7.284.324-3.592.015-7.23.039-10.852.077-12.224.085-12.224,12.085-13.349M91.217,54.86h19.662V44.741H90.862c0,2.528-.046,4.439.008,6.351.039,1.187.208,2.374.347,3.769M91.1,37.8h21.565c-6.474-4.871-19.037-4.3-21.565,0" transform="translate(757.15 1191.467)" fill="#0f172a"/>
    <path id="Tracé_47" data-name="Tracé 47" d="M118.1,27.766c-2.759-3.175-5.179-6.729-8.347-9.4-2.906-2.451-6.721-3.8-9.912-5.95-.9-.609-1.048-2.328-1.549-3.538,1.272-.285,2.983-1.249,3.73-.755,7.723,5.118,18.683,6.767,20.116,18.914.154,1.372,4.185,3.206,6.428,3.222,4.709.031,6.443,1.6,6.22,6.366-.308,6.266-.093,12.563.1,18.845.139,4.1-.994,6.289-5.7,6.058-6.752-.331-13.534-.2-20.294-.039-3.723.092-5.233-1.333-5.125-5.1a173.115,173.115,0,0,0-.039-18.113c-.416-5.811,1.2-8.771,7.515-7.862a22.483,22.483,0,0,0,4.894-.331Zm11.4,17.573H109.363V56.068h20.132Zm-.632-6c.362-.771.717-1.534,1.071-2.3-4.07-3.237-9.534-1.056-14.251-1.464-2.3-.2-4.694.809-7.052,1.272.17.832.347,1.665.516,2.5Z" transform="translate(842.762 1190.483)" fill="#0f172a"/>
    <path id="Tracé_48" data-name="Tracé 48" d="M105.279,23.836c0-3.684-.216-7.515.116-11.3.116-1.287,1.588-2.466,2.443-3.692.91,1.172,2.5,2.281,2.613,3.538.355,3.777.123,7.607.123,11.006,1.164.64,1.541,1.033,1.965,1.064,11.006.856,11.006.848,10.983,12.432-.046,18.768-.046,18.745-18.891,18.814-14.868.054-12.054.809-12.317-12.286-.031-1.449-.008-2.89-.008-4.339-.023-13.11-.023-13.11,12.972-15.238M118,39.968H98.249V50.134H118ZM97.5,31.983c.193.686.393,1.372.586,2.066,5.673,0,11.338.1,16.995-.1,1.041-.031,2.042-1.272,3.06-1.958-.963-.755-1.9-2.12-2.9-2.158-5.01-.208-10.035-.17-15.037.062-.933.039-1.811,1.357-2.705,2.089" transform="translate(802.328 1196.224)" fill="#0f172a"/>
    <path id="Tracé_190" data-name="Tracé 190" d="M98.387,39.669c-2.721-6.505-4.925-11.785-6.883-16.463,2.019-4.994,4.224-10.467,6.289-15.592,4.617-1.765,10.012-3.831,15.322-5.858,4.663,1.842,10.236,4.039,15.2,6q2.8,7.075,6.22,15.8c-1.673,3.784-4.054,9.187-6.659,15.091-3.985,1.541-9.534,3.692-16.255,6.3-2.79-3.322-7.384-7.846-13.234-5.28m26.529-16.787a12.088,12.088,0,0,0-12.4-12.224c-6.621.262-11.322,5.441-11.338,12.471-.008,7.114,5.1,12.07,12.386,12.024,6.536-.039,11.407-5.3,11.353-12.27" transform="translate(797.265 1148.675)" fill="#e11d48"/>
    <circle id="Ellipse_1" data-name="Ellipse 1" cx="12.5" cy="12.5" r="12.5" transform="translate(897.674 1159.032)" fill="#0f172a"/>
    <circle id="Ellipse_2" data-name="Ellipse 2" cx="9" cy="9" r="9" transform="translate(901.674 1163.032)" fill="#fff"/>
  </g>
</svg>
